<svg preserveAspectRatio="none" overflow="visible" style="display: block;" width="32" height="32" viewBox="0 0 32 32" fill="none" xmlns="http://www.w3.org/2000/svg">
<g id="fa7-solid:people-group">
<path id="Vector" d="M16 3.2C17.765 3.2 19.2 4.635 19.2 6.4C19.2 8.165 17.765 9.6 16 9.6C14.235 9.6 12.8 8.165 12.8 6.4C12.8 4.635 14.235 3.2 16 3.2ZM20.8 18.8C20.8 20.05 20.165 21.15 19.2 21.795V26.4C19.2 27.725 18.125 28.8 16.8 28.8H15.2C13.875 28.8 12.8 27.725 12.8 26.4V21.795C11.835 21.15 11.2 20.05 11.2 18.8V15.8C11.2 13.15 13.35 11 16 11C18.65 11 20.8 13.15 20.8 15.8V18.8ZM8 4.8C9.545 4.8 10.8 6.055 10.8 7.6C10.8 9.145 9.545 10.4 8 10.4C6.455 10.4 5.2 9.145 5.2 7.6C5.2 6.055 6.455 4.8 8 4.8ZM8.8 15.8V17.4C8.8 19.025 9.405 21.505 10.4 22.635V26.4C10.4 26.46 10.4 26.525 10.405 26.585C9.98 26.965 9.42 27.2 8.8 27.2H7.2C5.875 27.2 4.8 26.125 4.8 24.8V21.97C3.845 21.42 3.2 20.385 3.2 19.2L3.2 16.6C3.2 13.95 5.35 11.8 8 11.8C8.635 11.8 9.24 11.925 9.795 12.145C9.165 13.215 8.8 14.465 8.8 15.8ZM21.6 26.4V22.635C22.595 21.51 23.2 20.025 23.2 18.4V15.8C23.2 14.465 22.835 13.22 22.205 12.145C22.76 11.92 23.365 11.8 24 11.8C26.65 11.8 28.8 13.95 28.8 16.6V19.2C28.8 20.385 28.155 21.42 27.2 21.97V24.8C27.2 26.125 26.125 27.2 24.8 27.2H23.2C22.585 27.2 22.02 26.97 21.595 26.585C21.595 26.525 21.6 26.46 21.6 26.4ZM24 4.8C25.545 4.8 26.8 6.055 26.8 7.6C26.8 9.145 25.545 10.4 24 10.4C22.455 10.4 21.2 9.145 21.2 7.6C21.2 6.055 22.455 4.8 24 4.8Z" fill="#191919"/>
</g>
</svg>
