<svg preserveAspectRatio="none" overflow="visible" style="display: block;" width="18.1" height="18.1" viewBox="0 0 18.1 18.1" fill="none" xmlns="http://www.w3.org/2000/svg">
<g id="Frame 515">
<rect width="18" height="18" transform="translate(0 0.1)" fill="white"/>
<path id="Vector 249" d="M17 1.1L8 10.1" stroke="#4D5160" stroke-width="2.2" stroke-linecap="round"/>
<path id="Subtract" d="M9 0.1C9.55228 0.1 10 0.547715 10 1.1C10 1.65228 9.55228 2.1 9 2.1H4C2.89543 2.1 2 2.99543 2 4.1V14.1C2 15.2046 2.89543 16.1 4 16.1H14C15.1046 16.1 16 15.2046 16 14.1V9.1C16 8.54772 16.4477 8.1 17 8.1C17.5523 8.1 18 8.54772 18 9.1V14.1C18 16.3091 16.2091 18.1 14 18.1H4C1.79086 18.1 0 16.3091 0 14.1V4.1C0 1.95996 1.68056 0.212115 3.79395 0.104883L4 0.1H9Z" fill="#4D5160"/>
</g>
</svg>
