<svg width="15.0526" height="15.0526" viewBox="0 0 15.0526 15.0526" fill="none" xmlns="http://www.w3.org/2000/svg">
<g id="ri:more-fill">
<path id="Vector" d="M3.13596 6.27193C2.44605 6.27193 1.88158 6.8364 1.88158 7.52632C1.88158 8.21623 2.44605 8.7807 3.13596 8.7807C3.82588 8.7807 4.39035 8.21623 4.39035 7.52632C4.39035 6.8364 3.82588 6.27193 3.13596 6.27193ZM11.9167 6.27193C11.2268 6.27193 10.6623 6.8364 10.6623 7.52632C10.6623 8.21623 11.2268 8.7807 11.9167 8.7807C12.6066 8.7807 13.1711 8.21623 13.1711 7.52632C13.1711 6.8364 12.6066 6.27193 11.9167 6.27193ZM7.52632 6.27193C6.8364 6.27193 6.27193 6.8364 6.27193 7.52632C6.27193 8.21623 6.8364 8.7807 7.52632 8.7807C8.21623 8.7807 8.7807 8.21623 8.7807 7.52632C8.7807 6.8364 8.21623 6.27193 7.52632 6.27193Z" fill="#73787E"/>
</g>
</svg>
