<svg width="12" height="9.84426" viewBox="0 0 12 9.84426" fill="none" xmlns="http://www.w3.org/2000/svg">
<g id="Frame 825">
<path id="Vector" d="M5.99902 0.0546875C6.32147 0.0546875 6.59856 0.260577 6.67383 0.546875L7.65625 4.2334L7.66699 4.27344H9.24512L9.25781 4.2373L10.5889 0.498047C10.7096 0.160417 11.1055 -0.0272257 11.4717 0.0878906C11.8368 0.20268 12.0312 0.570379 11.9111 0.908203L10.7393 4.20117L10.7139 4.27344H11.249C11.6375 4.27353 11.9453 4.56682 11.9453 4.92285C11.9451 5.27872 11.6373 5.57218 11.249 5.57227H10.2529L10.2402 5.60742L8.91113 9.34473C8.81414 9.61751 8.53415 9.80032 8.22266 9.79004C7.91165 9.7797 7.64744 9.57701 7.57422 9.29883V9.29785L6.58984 5.61133L6.5791 5.57227H5.41895L5.4082 5.61133L4.4248 9.29785V9.29883C4.35162 9.57699 4.08732 9.77963 3.77637 9.79004C3.46489 9.80032 3.1849 9.61748 3.08789 9.34473L1.75879 5.60742L1.74609 5.57227H0.75C0.361616 5.57226 0.0539204 5.27877 0.0537109 4.92285C0.0537109 4.56677 0.361484 4.27345 0.75 4.27344H1.28516L1.25977 4.20117L0.0878906 0.908203C-0.0299922 0.572256 0.164737 0.200451 0.529297 0.0878906C0.89576 -0.0252323 1.29131 0.160572 1.41211 0.5L2.73828 4.2373L2.75098 4.27344H4.33008L4.34082 4.2334L5.32422 0.546875H5.3252C5.40043 0.260698 5.67676 0.0548604 5.99902 0.0546875ZM3.24023 5.64355L3.5957 6.64551L3.6543 6.80762L3.69824 6.6416L3.96582 5.63965L3.9834 5.57227H3.21484L3.24023 5.64355ZM8.0332 5.63965L8.30078 6.6416L8.34473 6.80762L8.40234 6.64551L8.75879 5.64355L8.78418 5.57227H8.01563L8.0332 5.63965ZM5.94727 3.58789L5.7832 4.20605L5.76562 4.27344H6.2334L6.21484 4.20605L6.05078 3.58789L5.99902 3.39355L5.94727 3.58789Z" fill="#FF6940" stroke="#FF6940" stroke-width="0.107131"/>
</g>
</svg>
